<svg width="62" height="51" viewBox="0 0 62 51" fill="none" xmlns="http://www.w3.org/2000/svg">
    <path fill-rule="evenodd" clip-rule="evenodd" d="M2.72632 5.91868H9.40979L21.0677 35.2214C21.1174 35.3547 21.1782 35.4826 21.2489 35.604C21.4489 35.9494 21.7235 36.2329 22.0436 36.4415C22.1188 36.4907 22.1968 36.536 22.2772 36.577C22.4944 36.6878 22.7299 36.7677 22.978 36.811C23.1399 36.8397 23.3053 36.8524 23.4719 36.8484H50.5161C50.5507 36.8484 50.585 36.8478 50.6191 36.8463C51.7072 36.8977 52.7416 36.2284 53.1057 35.1446L61.1332 11.2535C61.184 11.113 61.2227 10.9667 61.2477 10.8158C61.2982 10.5166 61.2925 10.2171 61.2371 9.93015C61.1683 9.57126 61.0228 9.2396 60.8185 8.95286C60.6068 8.65513 60.3289 8.40171 59.9969 8.21763C59.8765 8.15049 59.7499 8.09312 59.6183 8.04636C59.4796 7.99717 59.3352 7.95981 59.1865 7.93552C59.1393 7.92771 59.092 7.92124 59.0449 7.91624C58.9373 7.90464 58.8298 7.90037 58.7233 7.90281H23.4111C22.0304 7.90281 20.9111 9.02219 20.9111 10.4028C20.9111 11.7835 22.0304 12.9028 23.4111 12.9028H55.3043L48.9385 31.8484H25.1071L13.4521 2.55356C13.4316 2.4979 13.4092 2.44309 13.3849 2.38938C13.3365 2.28257 13.2809 2.17979 13.2186 2.08164C12.8379 1.4813 12.2084 1.0543 11.475 0.945776C11.395 0.933814 11.3143 0.925635 11.2332 0.921484C11.1724 0.918311 11.1112 0.917334 11.0499 0.918677H2.72632C1.34558 0.918677 0.226318 2.03794 0.226318 3.41868C0.226318 4.79941 1.34558 5.91868 2.72632 5.91868ZM30.1332 45.0648C30.1332 47.8518 27.8739 50.1111 25.0869 50.1111C22.3 50.1111 20.0408 47.8518 20.0408 45.0648C20.0408 42.2779 22.3 40.0187 25.0869 40.0187C27.8739 40.0187 30.1332 42.2779 30.1332 45.0648ZM48.652 50.1111C51.439 50.1111 53.6982 47.8518 53.6982 45.0648C53.6982 42.2779 51.439 40.0187 48.652 40.0187C45.8651 40.0187 43.6058 42.2779 43.6058 45.0648C43.6058 47.8518 45.8651 50.1111 48.652 50.1111Z" fill="black" />
</svg>