<svg height="154.81912" preserveAspectRatio="xMidYMid" viewBox="0 0 200 154.81912" width="200" xmlns="http://www.w3.org/2000/svg">
    <path d="m197.23914 117.96194c-3.8677 4.8796-13.34356 8.36053-13.34356 8.36053s-70.49109 25.31994-70.49109 25.31994v-18.67289s51.87665-18.48401 51.87665-18.48401c5.887-2.10924 6.79096-5.09097 2.00581-6.65604-4.77616-1.56957-13.42451-1.11983-19.31601.99841 0 0-34.56645 12.17426-34.56645 12.17426v-19.37898s1.99232-.6746 1.99232-.6746 9.98856-3.534896 24.03371-5.09097c14.04515-1.547081 31.24291.211374 44.74389 5.32933 15.21445 4.80764 16.92793 11.89543 13.06473 16.77502zm-77.12463-31.796087v-47.752601c0-5.608163-1.03439-10.771093-6.29626-12.232725-4.0296-1.290734-6.53012 2.45104-6.53012 8.054706v119.583887s-32.250314-10.23591-32.250314-10.23591v-142.58321c13.712343 2.54549 33.689454 8.56291 44.429074 12.18326 27.31226 9.376917 36.57225 21.047482 36.57225 47.343343 0 25.630256-15.82159 35.344478-35.92463 25.63925zm-104.252506 44.851827c-15.61921131-4.39838-18.2186654-13.56393-11.0993993-18.84379 6.5795883-4.8751 17.7689333-8.54492 17.7689333-8.54492s46.241498-16.442224 46.241498-16.442224v18.744854s-33.275709 11.90892-33.275709 11.90892c-5.878004 2.10924-6.781967 5.09547-2.005807 6.66054 4.780657 1.56506 13.433512 1.11983 19.320511-.99391 0 0 15.961005-5.79256 15.961005-5.79256v16.77053c-1.011893.17989-2.140724.35978-3.184104.53518-15.965505 2.60845-32.969893 1.5201-49.726928-4.00262zm171.105246 7.42508c2.0193 0 3.91267.78254 5.33832 2.22618 1.42566 1.42115 2.21269 3.31903 2.21269 5.33383 0 2.02379-.78703 3.91267-2.21269 5.33383-1.42565 1.43464-3.31902 2.21718-5.33832 2.21718s-3.90818-.78254-5.33833-2.21718c-1.42565-1.42116-2.20818-3.31004-2.20818-5.33383 0-4.16453 3.38198-7.56001 7.54651-7.56001zm-6.27827 7.56001c0 1.6775.65211 3.25606 1.83941 4.43436 1.18279 1.19629 2.76585 1.8439 4.43886 1.8439 3.46743 0 6.27826-2.81532 6.27826-6.27826 0-1.682-.64761-3.26056-1.8394-4.44336-1.1828-1.19629-2.76586-1.83941-4.43886-1.83941-1.67301 0-3.25607.64312-4.43886 1.83941-1.1873 1.1828-1.83941 2.76136-1.83941 4.44336zm8.55841-4.07008c.82751.36428 1.24576 1.06586 1.24576 2.06427 0 .5127-.10794.94444-.3283 1.28174-.15741.24285-.38228.44074-.63413.61163.19788.11694.37328.25635.50371.41826.17988.23386.28332.60713.29682 1.11533 0 0 .0405 1.07486.0405 1.07486.0135.28783.0315.5082.0765.64312.045.19788.13042.32381.23835.36429 0 0 .11244.054.11244.054v.12143.18439.18439h-.18439-1.33571-.10793s-.054-.0944-.054-.0944c-.045-.0899-.0764-.19338-.10793-.3283-.0225-.12143-.045-.3328-.0585-.65661 0 0-.0675-1.33571-.0675-1.33571-.018-.46322-.1754-.75105-.47222-.90396-.18439-.0854-.49021-.12592-.90396-.12592h-2.28914v3.26056.18439h-.18889-1.08836-.18438v-.18439-8.03672-.18439h.18438 3.71929c.63863 0 1.17381.0944 1.58756.28782zm-4.0296 3.38648h2.32961c.46772 0 .841-.0855 1.10634-.26084.24286-.1754.35979-.49471.35979-.95793 0-.5037-.1664-.83201-.51719-1.0074-.19338-.0944-.46323-.14841-.80503-.14841h-2.47352z" />
</svg>