<svg height="172" preserveAspectRatio="xMidYMid meet" viewBox="0 0 825 172" width="825" xmlns="http://www.w3.org/2000/svg">
    <g transform="matrix(.1 0 0 -.1 0 172)">
        <path d="m62 1603 3-88 956-5 955-5 43-28c61-41 94-116 95-217 0-94-16-150-57-197-67-77-19-73-883-73-746 0-774-1-837-20-111-34-197-117-249-241-22-52-23-68-26-371l-3-318h180 180l3 298c3 297 3 298 29 347 15 30 42 62 68 80l43 30 781 5c772 5 783 6 847 28 81 26 150 71 190 122 78 98 112 242 92 382-25 174-120 289-280 338-62 19-97 20-1098 20h-1035z" />
        <path d="m3947 1679c-93-22-197-97-242-173-60-103-59-90-65-616l-5-485-27-57c-19-41-38-65-69-85l-43-28-550-5-551-5-3-93-3-93 633 3 633 3 66 23c118 42 205 125 250 239 23 57 24 66 29 548 4 368 9 497 18 520 22 50 61 94 102 115 38 19 60 20 548 20 426 0 511 2 521 14 7 9 11 42 9 88l-3 73-605 2c-333 0-622-3-643-8z" />
        <path d="m7129 1667c-24-13-487-297-1029-632-655-404-999-622-1027-651-44-44-53-76-33-115 28-50-2-49 1024-49h955l3-87 3-88h180 180l3 88 3 87h174 175v90 90h-175-174l-3 598c-3 546-4 600-20 629-28 50-54 63-129 63-50 0-77-6-110-23zm-104-783v-479l-778-3c-511-1-778 1-775 8 4 14 1531 960 1543 956 6-2 10-171 10-482z" />
        <path d="m8070 141c0-83 3-101 15-101s15 14 16 63l1 62 21-62c28-83 48-84 75-5l20 57 1-57c1-45 4-58 16-58s15 18 15 100c0 92-1 100-19 100-16 0-25-15-42-70-13-38-25-67-28-64s-15 33-27 67c-16 48-26 63-42 65-21 3-22 0-22-97z" />
    </g>
</svg>