<svg height="173" preserveAspectRatio="xMidYMid meet" viewBox="0 0 839 173" width="839" xmlns="http://www.w3.org/2000/svg">
    <g transform="matrix(.1 0 0 -.1 0 173)">
        <path d="m80 1615v-95l953-2 952-3 54-30c68-37 107-85 128-154 37-129-23-253-152-313l-50-23-770-5c-768-5-770-5-824-27-130-53-223-149-262-271-20-61-23-93-27-359l-4-293h181 181v265c0 237 2 270 19 315 26 69 79 130 137 160l49 25 765 5c591 5 774 9 805 19 126 41 230 127 279 231 30 63 31 70 31 201v135l-38 76c-42 87-99 143-182 183-121 57-81 55-1197 55h-1028z" />
        <path d="m3893 1695c-172-47-291-162-334-326-7-28-14-206-18-499-7-499-5-489-70-563-18-19-51-45-75-56-41-20-58-21-514-21h-472v-95-95h553c595 0 600 1 706 54 65 33 144 105 177 161 59 102 58 90 64 605 5 466 5 476 27 516 29 54 101 117 151 132 28 9 176 12 501 12h461v95 95l-552-1c-442 0-563-3-605-14z" />
        <path d="m5402 1358c3-387 4-388 67-460 17-19 55-46 83-59l53-24 825-5c917-6 862-2 961-75 134-98 138-312 8-429-89-80-27-76-1071-76h-928v-95-95l1048 2c1044 3 1047 3 1104 24 176 67 271 187 299 380 23 153-21 295-120 394-69 67-135 104-237 130-74 19-113 20-846 20-834 0-812-1-856 55-21 27-22 37-22 251v224h1010 1010v95 95h-1196-1195z" />
        <path d="m8190 131c0-93 1-101 20-101 16 0 19 8 22 57l3 58 19-58c25-73 43-71 70 8l21 60 3-63c2-46 7-62 17-62 12 0 15 19 15 100 0 99 0 100-24 100-18 0-26-7-31-27-3-15-13-43-22-62l-15-36-22 60c-19 50-27 61-49 63l-27 3z" />
    </g>
</svg>