<svg width="49" height="49" viewBox="0 0 49 49" fill="none" xmlns="http://www.w3.org/2000/svg">
    <path fill-rule="evenodd" clip-rule="evenodd" d="M36.544 32.6703C39.2154 29.2704 40.8087 24.9832 40.8087 20.3239C40.8087 9.27816 31.8544 0.323853 20.8087 0.323853C9.76302 0.323853 0.808716 9.27816 0.808716 20.3239C0.808716 31.3695 9.76302 40.3239 20.8087 40.3239C25.3933 40.3239 29.6176 38.7813 32.9909 36.1868C33.0054 36.202 33.0201 36.2171 33.035 36.232L44.7288 47.9258C45.7051 48.9021 47.288 48.9021 48.2643 47.9258C49.2406 46.9495 49.2406 45.3666 48.2643 44.3902L36.5705 32.6965C36.5617 32.6877 36.5529 32.679 36.544 32.6703ZM20.8087 34.9503C12.7307 34.9503 6.18224 28.4018 6.18224 20.3239C6.18224 12.2459 12.7307 5.69738 20.8087 5.69738C28.8867 5.69738 35.4352 12.2459 35.4352 20.3239C35.4352 28.4018 28.8867 34.9503 20.8087 34.9503Z" fill="black" />
</svg>